<?xml version="1.0" encoding="UTF-8"?>
<svg width="512px" height="512px" viewBox="0 0 512 512" xmlns="http://www.w3.org/2000/svg">
  <!-- Exhaust Pipe Body -->
  <path d="M120 400H80v-80h40c22.1 0 40-17.9 40-40v-80c0-22.1-17.9-40-40-40H80v-80h40c66.3 0 120 53.7 120 120v80c0 66.3-53.7 120-120 120z" 
        fill="#73b711"/>
  <!-- Exhaust Tip -->
  <path d="M80 400v80h40c97.2 0 176-78.8 176-176v-80c0-97.2-78.8-176-176-176H80v80h40c53 0 96 43 96 96v80c0 53-43 96-96 96H80z" 
        fill="#73b711" opacity="0.8"/>
  <!-- Exhaust Waves -->
  <path d="M400 280c0-13.3 10.7-24 24-24s24 10.7 24 24-10.7 24-24 24-24-10.7-24-24zm-96 0c0-13.3 10.7-24 24-24s24 10.7 24 24-10.7 24-24 24-24-10.7-24-24z" 
        fill="#73b711"/>
</svg>