<?xml version="1.0" encoding="UTF-8"?>
<svg version="1.1" xmlns="http://www.w3.org/2000/svg" width="164" height="61">
<path d="M0 0 C0 3.63 0 7.26 0 11 C1.155 11.020625 2.31 11.04125 3.5 11.0625 C9.04337699 11.74309255 12.38626491 14.93670935 16 19 C18.17274774 22.80230855 18 24.39559014 18 29 C21.3 29 24.6 29 28 29 C28.61012898 36.56559939 27.31301803 41.69715965 23 48 C17.84150398 53.75204682 11.79875778 57.92868014 3.87890625 58.43359375 C2.44028813 58.45663798 1.00116429 58.45745463 -0.4375 58.4375 C-1.18741211 58.43137695 -1.93732422 58.42525391 -2.70996094 58.41894531 C-8.45419552 58.25611267 -12.19977112 57.32323538 -17 54 C-17.886875 53.401875 -18.77375 52.80375 -19.6875 52.1875 C-25.31771698 46.86161907 -28.54520344 41.308599 -29.37109375 33.484375 C-29.55838766 22.95184705 -27.86519466 15.98654375 -20.75 8.125 C-15.0622451 2.8709519 -7.76255597 0 0 0 Z M-16 15 C-15.67 15.66 -15.34 16.32 -15 17 C-14.34 17 -13.68 17 -13 17 C-13 16.34 -13 15.68 -13 15 C-13.99 15 -14.98 15 -16 15 Z M-11 20 C-14.05146436 24.47548107 -14.95053785 28.70867264 -14 34 C-11.77915243 38.35944153 -9.57923841 41.16830464 -5 43 C-0.723563 43.5608442 2.81623706 43.49981102 6.8125 41.8125 C11.39115909 38.08862049 11.39115909 38.08862049 13.38671875 32.6640625 C13.63472025 26.9685798 12.94281716 23.36906766 9 19 C5.31184781 15.83872669 1.92071277 15.47225226 -2.78515625 15.65234375 C-6.33943214 16.21024596 -8.3595828 17.61105111 -11 20 Z M-21 28 C-21 28.99 -21 29.98 -21 31 C-20.34 31 -19.68 31 -19 31 C-19 30.01 -19 29.02 -19 28 C-19.66 28 -20.32 28 -21 28 Z M-15 42 C-15 42.99 -15 43.98 -15 45 C-14.34 45 -13.68 45 -13 45 C-13.33 44.01 -13.66 43.02 -14 42 C-14.33 42 -14.66 42 -15 42 Z M13 42 C13 42.99 13 43.98 13 45 C13.66 44.34 14.32 43.68 15 43 C14.34 42.67 13.68 42.34 13 42 Z M-1 48 C-1.33 48.66 -1.66 49.32 -2 50 C-1.01 50 -0.02 50 1 50 C1 49.34 1 48.68 1 48 C0.34 48 -0.32 48 -1 48 Z " fill="#FFFFFF" transform="translate(29,3)"/>
<path d="M0 0 C0.8971875 0.7425 0.8971875 0.7425 1.8125 1.5 C1.4825 2.82 1.1525 4.14 0.8125 5.5 C-2.20149614 6.29782251 -4.14862176 6.5071409 -7.25 5.9375 C-10.545274 5.44671451 -11.50287698 5.62975007 -14.1875 7.5 C-14.92607024 9.54479291 -14.92607024 9.54479291 -15 11.875 C-15.06832031 12.64585938 -15.13664062 13.41671875 -15.20703125 14.2109375 C-15.18765809 16.48147221 -14.83587076 18.33216493 -14.1875 20.5 C-8.8081503 21.34937101 -4.61008992 21.36761439 0.8125 20.5 C1.4725 20.83 2.1325 21.16 2.8125 21.5 C3.0798999 20.8387915 3.3472998 20.17758301 3.62280273 19.49633789 C4.8292498 16.51732351 6.03957088 13.53989848 7.25 10.5625 C7.67087891 9.52158203 8.09175781 8.48066406 8.52539062 7.40820312 C8.92822266 6.41884766 9.33105469 5.42949219 9.74609375 4.41015625 C10.11790771 3.49371338 10.48972168 2.57727051 10.87280273 1.63305664 C11.8125 -0.5 11.8125 -0.5 12.8125 -1.5 C15.48308851 -1.64115161 18.13682238 -1.54247107 20.8125 -1.5 C24.04505677 5.26304503 26.91011229 12.14148625 29.625 19.125 C29.93896729 19.93114746 30.25293457 20.73729492 30.57641602 21.56787109 C32.8125 27.36668717 32.8125 27.36668717 32.8125 28.5 C30.1725 28.5 27.5325 28.5 24.8125 28.5 C24.544375 27.530625 24.27625 26.56125 24 25.5625 C22.15966211 22.27428185 22.15966211 22.27428185 19.1640625 21.87890625 C16.37142004 21.64558779 13.61442703 21.50951418 10.8125 21.5 C10.668125 22.469375 10.52375 23.43875 10.375 24.4375 C9.8125 27.5 9.8125 27.5 8.8125 28.5 C6.14191149 28.64115161 3.48817762 28.54247107 0.8125 28.5 C0.8125 27.84 0.8125 27.18 0.8125 26.5 C0.26207031 26.82226562 -0.28835937 27.14453125 -0.85546875 27.4765625 C-5.60905374 29.56272543 -11.44001576 29.37127428 -16.35546875 27.8125 C-19.31467061 26.29819628 -21.1626041 24.53372993 -23.125 21.875 C-24.8565341 16.37483285 -25.26734004 10.9836321 -22.9375 5.625 C-16.9344487 -1.66441944 -8.99233998 -4.2316894 0 0 Z M15.8125 7.5 C14.8225 10.47 13.8325 13.44 12.8125 16.5 C15.1225 16.5 17.4325 16.5 19.8125 16.5 C19.1525 13.53 18.4925 10.56 17.8125 7.5 C17.1525 7.5 16.4925 7.5 15.8125 7.5 Z " fill="#FFFFFF" transform="translate(103.1875,3.5)"/>
<path d="M0 0 C2.536875 -0.061875 5.07375 -0.12375 7.6875 -0.1875 C8.47729248 -0.21481201 9.26708496 -0.24212402 10.08081055 -0.27026367 C14.61722053 -0.32360621 17.40191876 0.21811866 21 3 C23.10101595 5.6740203 22.99846976 7.04284685 22.875 10.5 C21.91534623 14.33861507 20.83770599 15.40161861 18 18 C18.75796875 19.04800781 18.75796875 19.04800781 19.53125 20.1171875 C20.50578125 21.48230469 20.50578125 21.48230469 21.5 22.875 C22.1496875 23.77992187 22.799375 24.68484375 23.46875 25.6171875 C25 28 25 28 25 30 C21.81348164 30.63730367 19.15494829 30.86979814 16 30 C13.93207493 27.56791202 12.60246693 25.14345866 11.19140625 22.28515625 C10.21187811 19.86162386 10.21187811 19.86162386 8 19 C8 22.63 8 26.26 8 30 C5.36 30 2.72 30 0 30 C0 20.1 0 10.2 0 0 Z M8 5 C8 7.97 8 10.94 8 14 C11.93075644 13.42547254 11.93075644 13.42547254 15 11 C14.67958603 8.39719432 14.67958603 8.39719432 14 6 C11.03 5.505 11.03 5.505 8 5 Z " fill="#FFFFFF" transform="translate(137,2)"/>
<path d="M0 0 C7.45534581 -0.81036368 13.13656897 2.05572181 19.01953125 6.5390625 C24.02747874 11.14331924 28.35192542 17.3305396 29.3046875 24.1953125 C29.3125 26.125 29.3125 26.125 29 29 C25.04 29 21.08 29 17 29 C16.649375 27.63875 16.29875 26.2775 15.9375 24.875 C14.20707593 19.71622403 11.64787801 16.79251326 7 14 C4.63945811 13.05119967 2.50834369 12.51190687 0 12 C0 8.04 0 4.08 0 0 Z " fill="#73B711" transform="translate(32,0)"/>
<path d="M0 0 C9.1796875 -0.1953125 9.1796875 -0.1953125 12 0 C14 2 14 2 14.1875 4.875 C14 8 14 8 13.375 10.1875 C13.25125 10.785625 13.1275 11.38375 13 12 C13.99 13.485 13.99 13.485 15 15 C15.33 10.05 15.66 5.1 16 0 C20.29 0 24.58 0 29 0 C29 0.99 29 1.98 29 3 C26.36 3 23.72 3 21 3 C21 4.32 21 5.64 21 7 C22.98 7 24.96 7 27 7 C27 7.99 27 8.98 27 10 C25.02 10 23.04 10 21 10 C21 11.65 21 13.3 21 15 C23.64 15 26.28 15 29 15 C29 15.99 29 16.98 29 18 C25.91738544 18.1746397 22.83604167 18.28094067 19.75 18.375 C18.87730469 18.42527344 18.00460938 18.47554687 17.10546875 18.52734375 C14.60060033 18.58470715 12.44143298 18.57252845 10 18 C7.390625 14.9765625 7.390625 14.9765625 6 12 C5.67 13.98 5.34 15.96 5 18 C3.35 18 1.7 18 0 18 C0 12.06 0 6.12 0 0 Z M5 3 C5 4.65 5 6.3 5 8 C6.32 7.67 7.64 7.34 9 7 C8.67 5.68 8.34 4.36 8 3 C7.01 3 6.02 3 5 3 Z " fill="#73B711" transform="translate(79,42)"/>
<path d="M0 0 C1.98 0 3.96 0 6 0 C7.65 4.29 9.3 8.58 11 13 C11.33 8.71 11.66 4.42 12 0 C13.65 0 15.3 0 17 0 C17 5.94 17 11.88 17 18 C13.7 18 10.4 18 7 18 C6.67 16.68 6.34 15.36 6 14 C4.02 14.33 2.04 14.66 0 15 C-0.33 15.99 -0.66 16.98 -1 18 C-2.98 18 -4.96 18 -7 18 C-6.02216461 15.37449704 -5.0427937 12.74958495 -4.0625 10.125 C-3.78470703 9.37863281 -3.50691406 8.63226563 -3.22070312 7.86328125 C-1.11328125 2.2265625 -1.11328125 2.2265625 0 0 Z M2 6 C1.67 7.65 1.34 9.3 1 11 C2.32 10.67 3.64 10.34 5 10 C4.34 8.68 3.68 7.36 3 6 C2.67 6 2.34 6 2 6 Z " fill="#73B711" transform="translate(128,42)"/>
<path d="M0 0 C2.97551265 2.06992184 4.59918728 3.63426776 5.6328125 7.15625 C6.21499709 10.87232186 6.25758585 13.34172506 4.875 16.875 C2.14445203 19.96962103 0.10765071 21.83522004 -4.1484375 22.16796875 C-8.6179045 21.96751093 -10.55460526 21.3897204 -14 18.375 C-16.23001163 14.61185537 -17.0781246 12.37497739 -17 8 C-15.20859515 4.27387792 -13.58680074 2.40424051 -10.1875 0.0625 C-6.21540636 -1.26153121 -4.01699158 -1.16857937 0 0 Z M-10.375 5.5625 C-12.34359806 8.01459258 -12.34359806 8.01459258 -11.9375 11.625 C-11.3249155 15.25516924 -11.3249155 15.25516924 -8 17 C-4.9124407 17.32162076 -2.85984439 17.48724515 -0.125 15.9375 C1.66235303 12.85928089 1.43386742 10.47093932 1 7 C-1.07691798 4.61539047 -2.40556916 4.1040254 -5.5 3.5625 C-8.11334204 3.84918933 -8.11334204 3.84918933 -10.375 5.5625 Z " fill="#FFFFFF" transform="translate(34,22)"/>
<path d="M0 0 C10.49813946 -0.37052257 10.49813946 -0.37052257 12.8359375 1.35546875 C14.48042063 3.67871505 14.34802076 5.2158339 14 8 C13.01 9.485 13.01 9.485 12 11 C13.32 13.31 14.64 15.62 16 18 C13.69 18 11.38 18 9 18 C8.01 16.02 7.02 14.04 6 12 C5.67 13.98 5.34 15.96 5 18 C3.35 18 1.7 18 0 18 C0 12.06 0 6.12 0 0 Z M5 3 C5 4.65 5 6.3 5 8 C6.32 7.67 7.64 7.34 9 7 C9 6.01 9 5.02 9 4 C7.68 3.67 6.36 3.34 5 3 Z " fill="#73B711" transform="translate(148,42)"/>
<path d="M0 0 C11.47897324 -0.37028946 11.47897324 -0.37028946 13.86328125 1.32421875 C15.63321345 3.93350024 15.38278316 5.9377347 15 9 C13.9375 10.875 13.9375 10.875 12 12 C8.3125 12.1875 8.3125 12.1875 5 12 C5 13.98 5 15.96 5 18 C3.35 18 1.7 18 0 18 C0 12.06 0 6.12 0 0 Z M5 3 C5 4.98 5 6.96 5 9 C6.32 8.67 7.64 8.34 9 8 C9 6.68 9 5.36 9 4 C7.68 3.67 6.36 3.34 5 3 Z " fill="#73B711" transform="translate(109,42)"/>
<path d="M0 0 C1.65 0.99 3.3 1.98 5 3 C4.75 4.875 4.75 4.875 4 7 C1.9375 8.25 1.9375 8.25 0 9 C-0.99 8.34 -1.98 7.68 -3 7 C-3.375 4.5 -3.375 4.5 -3 2 C-2.01 1.34 -1.02 0.68 0 0 Z " fill="#FFFFFF" transform="translate(28,28)"/>
</svg>
